#N canvas 250 153 272 114 10;
#X declare -path lib -stdlib sigmund~;
#N canvas 682 93 373 222 main-controls 0;
#X text 52 70 1;
#X obj 230 92 bng 15 250 50 0 load-presets load-presets-set empty 17
7 0 10 -262144 -1 -1;
#X text 53 92 2;
#X obj 220 54 bng 10 250 50 0 stop stop-set stop -26 4 0 10 -258113
-1 -1;
#X obj 131 96 hradio 10 1 0 8 empty empty presets 0 -6 0 10 -262144
-1 -1 2;
#X obj 230 72 bng 15 250 50 0 load-samples load-samples-set empty 17
7 0 10 -262144 -1 -1;
#X obj 67 72 nbx 2 14 2 100 0 0 presamp-samp empty empty 0 -8 0 10
-262144 -1 -1 10 256;
#X msg 97 139 set \$1;
#X obj 68 92 nbx 5 14 0 7 0 0 prepreset preprese-set empty 0 -8 0 10
-262144 -1 -1 2 256;
#X text 209 92 ->;
#X obj 131 75 hradio 10 1 0 8 empty empty harmonics 0 -6 0 10 -262144
-1 -1 2;
#X obj 97 72 nbx 2 14 2 33 0 0 harmonics empty empty 0 -8 0 10 -262144
-1 -1 6 256;
#X obj 97 6 + 1;
#X obj 97 28 * 2;
#X obj 236 50 tglvis main-controls;
#X obj 54 53 tgl 10 0 fullscreen fullscreen-set fullscreen 11 5 0 10
-262144 -1 -1 0 1;
#X text 209 71 ->;
#N canvas 0 22 301 308 load-samples 0;
#X obj 30 245 f;
#X obj 30 180 del 300;
#X obj 30 267 s sample-amount;
#X obj 69 123 s stop-set;
#X obj 30 99 t b b b;
#X obj 30 77 spigot;
#X obj 171 77 r presamp;
#X obj 171 99 unpack;
#X obj 162 128 f;
#X obj 187 128 f;
#X obj 30 27 t b b b;
#X obj 174 173 >= 2;
#X obj 203 173 >= 2;
#X obj 180 204 +;
#X obj 177 226 == 2;
#X obj 62 54 r samp-amount-sp;
#X obj 30 3 r load-samples;
#X obj 39 146 s loading-messages;
#X obj 152 256 s samp-amount-sp;
#X connect 0 0 2 0;
#X connect 1 0 0 0;
#X connect 4 0 1 0;
#X connect 4 1 17 0;
#X connect 4 2 3 0;
#X connect 5 0 4 0;
#X connect 6 0 7 0;
#X connect 7 0 8 1;
#X connect 7 1 9 1;
#X connect 8 0 11 0;
#X connect 8 0 0 1;
#X connect 9 0 12 0;
#X connect 10 0 5 0;
#X connect 10 1 8 0;
#X connect 10 2 9 0;
#X connect 11 0 13 0;
#X connect 12 0 13 1;
#X connect 13 0 14 0;
#X connect 14 0 18 0;
#X connect 15 0 5 1;
#X connect 16 0 10 0;
#X restore 254 89 pd load-samples;
#X obj 97 116 r prepreset;
#N canvas 0 22 203 212 load-presets 0;
#X obj 38 140 f;
#X obj 35 162 s presets;
#X obj 34 98 spigot;
#X obj 66 73 r samp-amount-sp;
#X obj 35 31 r load-presets;
#X obj 50 119 r prepreset;
#X connect 0 0 1 0;
#X connect 2 0 0 0;
#X connect 3 0 2 1;
#X connect 4 0 2 0;
#X connect 5 0 0 1;
#X restore 254 127 pd load-presets;
#N canvas 0 22 164 173 presamp 0;
#X obj 27 95 pack;
#X obj 40 70 t b f;
#X obj 27 119 s presamp;
#X obj 40 47 r harmonics;
#X obj 27 24 r presamp-samp;
#X connect 0 0 2 0;
#X connect 1 0 0 0;
#X connect 1 1 0 1;
#X connect 3 0 1 0;
#X connect 4 0 0 0;
#X restore 254 50 pd presamp;
#N canvas 597 213 471 392 creator 0;
#X obj 30 23 r sample-amount;
#X obj 30 73 pack f f;
#X obj 75 48 r harmonics;
#X text 179 166 NOTE: the path for the "samples" folder is relative
to the [sample-loader] abstraction., f 32;
#N canvas 691 22 381 303 makefilename 0;
#X obj 147 110 r audio-format;
#X obj 254 68 r sample-filename;
#X obj 161 32 t b b;
#X obj 131 132 list;
#X obj 129 153 symbol \$1;
#X obj 68 54 t a b, f 6;
#X obj 60 232 list append;
#X obj 60 254 outlet;
#X obj 53 26 inlet;
#X obj 241 92 list;
#X obj 241 114 symbol \$1;
#X obj 133 209 list prepend;
#X obj 190 256 print;
#N canvas 671 120 430 296 remember-filename 0;
#X msg 133 208 symbol your_sample;
#X msg 271 215 symbol wav;
#X obj 341 183 loadbang;
#X msg 127 167 set symbol \$1;
#X msg 245 167 set symbol \$1;
#X obj 69 96 r sample-filename;
#X obj 135 257 s sample-filename;
#X obj 180 120 r audio-format;
#X obj 273 250 s audio-format;
#X obj 54 141 list;
#X obj 15 187 list;
#X obj 15 260 s current-filename;
#X obj 15 11 r sample-amount;
#X obj 15 33 bang;
#X obj 313 23 r type;
#X obj 321 45 sel 0 1;
#X msg 321 67 symbol wav;
#X msg 341 87 symbol aiff;
#X obj 318 113 s audio-format;
#X obj 127 15 r sample-name;
#X obj 127 37 symbol \$1;
#X obj 123 59 s sample-filename;
#X connect 0 0 6 0;
#X connect 1 0 8 0;
#X connect 2 0 0 0;
#X connect 2 0 1 0;
#X connect 3 0 0 0;
#X connect 4 0 1 0;
#X connect 5 0 3 0;
#X connect 5 0 9 0;
#X connect 7 0 4 0;
#X connect 7 0 9 1;
#X connect 9 0 10 1;
#X connect 10 0 11 0;
#X connect 12 0 13 0;
#X connect 13 0 10 0;
#X connect 14 0 15 0;
#X connect 15 0 16 0;
#X connect 15 1 17 0;
#X connect 16 0 18 0;
#X connect 17 0 18 0;
#X connect 19 0 20 0;
#X connect 20 0 21 0;
#X restore 241 19 pd remember-filename;
#X connect 0 0 3 1;
#X connect 1 0 9 1;
#X connect 2 0 3 0;
#X connect 2 1 9 0;
#X connect 3 0 4 0;
#X connect 4 0 11 0;
#X connect 5 0 6 0;
#X connect 5 1 2 0;
#X connect 6 0 7 0;
#X connect 8 0 5 0;
#X connect 9 0 10 0;
#X connect 10 0 11 1;
#X connect 11 0 6 1;
#X connect 11 0 12 0;
#X restore 30 130 pd makefilename;
#X text 370 264 1 amount;
#X text 370 279 2 harmonics;
#X text 369 293 3 file name;
#X text 370 307 4 format;
#X text 370 324 5 path;
#X obj 30 186 list append ../samples;
#X msg 30 239 \; netsend-connect bang \; netsend send amount \$1 \$2
\; pd-synthesis clear \; pd-synthesis obj 10 10 clone -s 1 voice \$1
\$3 \$4 \$5 \$2 \; pd-synthesis obj 10 50 clone -s 1 batch \$1 \$3
\; \; pd dsp 1 \; samples load;
#X connect 0 0 1 0;
#X connect 1 0 4 0;
#X connect 2 0 1 1;
#X connect 4 0 10 0;
#X connect 10 0 11 0;
#X restore 254 108 pd creator;
#N canvas 879 103 172 158 printer 0;
#N canvas 0 22 660 312 ORKNA-WARNING 0;
#X msg 58 83 click to to create \$1 samples with \$2 harmonics;
#X msg 244 145 EXTREMELY CPU EXPENSIVE if too many harmonics and too
many samples...;
#X obj 204 43 > 10;
#X obj 174 43 > 33;
#X obj 94 111 spigot;
#X obj 46 114 t a b;
#X obj 175 69 ||;
#X obj 359 103 sel 0;
#X msg 271 198 specify sample amount and harmonics amount first!;
#X obj 81 31 r presamp;
#X obj 93 51 t a a;
#X obj 176 18 unpack;
#X obj 357 81 r samp-amount-sp;
#X obj 346 231 print ORKNA-WARNING;
#X obj 41 197 print ORKNA-INSTRUCTIONS;
#X connect 0 0 5 0;
#X connect 1 0 13 0;
#X connect 2 0 6 1;
#X connect 3 0 6 0;
#X connect 4 0 1 0;
#X connect 5 0 14 0;
#X connect 5 1 4 0;
#X connect 6 0 4 1;
#X connect 7 0 8 0;
#X connect 8 0 13 0;
#X connect 9 0 10 0;
#X connect 10 0 0 0;
#X connect 10 1 11 0;
#X connect 11 0 3 0;
#X connect 11 1 2 0;
#X connect 12 0 7 0;
#X restore 15 70 pd ORKNA-WARNING;
#N canvas 566 30 371 434 VERSION 0;
#X obj 60 20 loadbang;
#X obj 65 137 del 1000;
#X obj 68 165 t b b;
#X obj 128 48 text define version;
#X msg 94 75 read -c VERSION.txt;
#X obj 75 327 t b b;
#X obj 63 46 t b b;
#X obj 158 252 text size version;
#X obj 158 274 until;
#X obj 158 296 f;
#X obj 187 296 + 1;
#X obj 170 232 t b b;
#X msg 196 272 0;
#X obj 161 321 text get version;
#X obj 200 371 list trim;
#X obj 73 404 s final-instructions;
#N canvas 462 42 452 548 MORE-ASCII-FUN 0;
#X obj 169 90 until;
#X obj 172 112 f;
#X obj 198 112 + 1;
#X obj 181 247 sel 0;
#X obj 181 369 list append;
#X obj 181 394 t l l;
#X obj 134 403 list;
#X obj 100 236 t b b b;
#X obj 100 212 until;
#X obj 267 136 f;
#X obj 297 136 + 1;
#X obj 181 200 f;
#X obj 210 201 + 1;
#X obj 172 134 t b f;
#X obj 178 179 t b f;
#X obj 182 223 mod 5;
#X obj 178 157 random 7;
#X msg 298 250 list f;
#X msg 308 270 list e;
#X msg 318 290 list d;
#X obj 180 333 list;
#X msg 364 250 bang;
#X msg 244 221 0;
#X obj 298 228 sel 2 3 4;
#X msg 170 297 ~;
#X msg 199 296 -;
#X obj 100 190 int 22;
#X msg 170 67 20;
#X obj 135 446 list trim;
#X msg 104 166 bang;
#X obj 126 489 print ORKNA;
#X obj 35 90 inlet;
#X connect 0 0 1 0;
#X connect 1 0 2 0;
#X connect 1 0 13 0;
#X connect 2 0 1 1;
#X connect 3 0 24 0;
#X connect 3 0 9 0;
#X connect 3 1 25 0;
#X connect 3 1 22 0;
#X connect 4 0 5 0;
#X connect 5 0 6 1;
#X connect 5 1 4 1;
#X connect 6 0 28 0;
#X connect 7 0 6 0;
#X connect 7 1 27 0;
#X connect 7 2 4 1;
#X connect 8 0 7 0;
#X connect 9 0 10 0;
#X connect 9 0 23 0;
#X connect 10 0 9 1;
#X connect 11 0 12 0;
#X connect 11 0 15 0;
#X connect 12 0 11 1;
#X connect 13 0 16 0;
#X connect 14 0 11 0;
#X connect 14 1 12 1;
#X connect 15 0 3 0;
#X connect 16 0 14 0;
#X connect 17 0 20 1;
#X connect 18 0 20 1;
#X connect 19 0 20 1;
#X connect 20 0 4 0;
#X connect 21 0 20 1;
#X connect 22 0 9 1;
#X connect 23 0 17 0;
#X connect 23 1 18 0;
#X connect 23 2 19 0;
#X connect 23 3 21 0;
#X connect 24 0 20 0;
#X connect 25 0 20 0;
#X connect 26 0 8 0;
#X connect 27 0 0 0;
#X connect 28 0 30 0;
#X connect 29 0 26 0;
#X connect 31 0 26 0;
#X restore 79 201 pd MORE-ASCII-FUN;
#X obj 224 399 print *;
#X msg 226 229 bang;
#X obj 186 347 list append :*;
#X connect 0 0 6 0;
#X connect 1 0 2 0;
#X connect 2 0 5 0;
#X connect 2 1 16 0;
#X connect 4 0 3 0;
#X connect 5 0 15 0;
#X connect 5 1 11 0;
#X connect 6 0 1 0;
#X connect 6 1 4 0;
#X connect 7 0 8 0;
#X connect 8 0 9 0;
#X connect 9 0 10 0;
#X connect 9 0 13 0;
#X connect 10 0 9 1;
#X connect 11 0 7 0;
#X connect 11 1 12 0;
#X connect 12 0 9 1;
#X connect 13 0 19 0;
#X connect 14 0 17 0;
#X connect 18 0 11 0;
#X connect 19 0 14 0;
#X restore 15 32 pd VERSION;
#N canvas 0 22 687 404 PRELOADING-ASCI-FUN 0;
#X obj 51 104 f;
#X obj 86 107 + 1;
#X msg 51 192 .;
#X msg 88 198 ..;
#X msg 126 200 ...;
#X obj 200 55 r loaded;
#X obj 200 77 f;
#X obj 233 78 + 1;
#X obj 200 172 sel;
#X obj 200 194 del 10;
#X msg 431 127 ...this might take a while...;
#X obj 51 170 sel 0 1 2 3;
#X obj 51 144 mod 4;
#X obj 439 59 tgl 15 0 empty empty empty 17 7 0 10 -262144 -1 -1 1
1;
#X obj 439 79 sel 0 1;
#X obj 41 75 until;
#X msg 93 39 0;
#X msg 42 54 20;
#X obj 42 30 t b b;
#X obj 215 149 - 1;
#X msg 257 186 20;
#X obj 257 208 until;
#X msg 296 300 - f - - - - - e - - - - - d - - - - - e - - - - - f
- - - - - e - - - -;
#X obj 257 230 f;
#X obj 287 229 + 1;
#X msg 295 207 0;
#X obj 200 216 t b b b;
#X msg 257 252 add2 - \, bang;
#X msg 303 185 set;
#X obj 215 104 r presamp;
#X obj 215 126 unpack;
#X msg 483 149 ....;
#X obj 567 164 mod 5;
#X obj 567 186 sel 0;
#X obj 567 208 f;
#X obj 600 208 + 1;
#X obj 636 208 mod 4;
#X obj 567 230 sel 0 1 2 3;
#X msg 567 252 symbol f;
#X msg 577 272 symbol e;
#X msg 587 292 symbol d;
#X msg 487 242 add2 \$1;
#X msg 153 306 \; pd audio-properties \;;
#X obj 152 263 spigot 1;
#X obj 152 283 t b b;
#X msg 189 283 0;
#X obj 42 8 r loading-messages;
#X obj 166 358 print ORKNA;
#X obj 274 156 r load-lines;
#X connect 0 0 1 0;
#X connect 0 0 12 0;
#X connect 1 0 0 1;
#X connect 2 0 47 0;
#X connect 3 0 47 0;
#X connect 4 0 47 0;
#X connect 5 0 6 0;
#X connect 6 0 7 0;
#X connect 6 0 8 0;
#X connect 7 0 6 1;
#X connect 8 0 9 0;
#X connect 9 0 26 0;
#X connect 10 0 47 0;
#X connect 11 0 2 0;
#X connect 11 1 3 0;
#X connect 11 2 4 0;
#X connect 11 3 13 0;
#X connect 12 0 11 0;
#X connect 13 0 14 0;
#X connect 14 0 10 0;
#X connect 14 1 31 0;
#X connect 15 0 0 0;
#X connect 16 0 0 1;
#X connect 16 0 6 1;
#X connect 17 0 15 0;
#X connect 18 0 17 0;
#X connect 18 1 16 0;
#X connect 19 0 8 1;
#X connect 20 0 21 0;
#X connect 21 0 23 0;
#X connect 22 0 47 0;
#X connect 23 0 24 0;
#X connect 23 0 27 0;
#X connect 23 0 32 0;
#X connect 24 0 23 1;
#X connect 25 0 23 1;
#X connect 26 0 43 0;
#X connect 26 1 15 1;
#X connect 26 1 20 0;
#X connect 26 2 25 0;
#X connect 26 2 28 0;
#X connect 27 0 22 0;
#X connect 28 0 22 0;
#X connect 29 0 30 0;
#X connect 30 0 19 0;
#X connect 31 0 47 0;
#X connect 32 0 33 0;
#X connect 33 0 34 0;
#X connect 34 0 35 0;
#X connect 34 0 37 0;
#X connect 35 0 36 0;
#X connect 36 0 34 1;
#X connect 37 0 38 0;
#X connect 37 1 39 0;
#X connect 37 2 40 0;
#X connect 37 3 39 0;
#X connect 38 0 41 0;
#X connect 39 0 41 0;
#X connect 40 0 41 0;
#X connect 41 0 22 0;
#X connect 43 0 44 0;
#X connect 44 0 42 0;
#X connect 44 1 45 0;
#X connect 45 0 43 1;
#X connect 46 0 18 0;
#X connect 48 0 21 0;
#X restore 15 13 pd PRELOADING-ASCI-FUN;
#N canvas 0 22 450 300 stopped-at 0;
#X obj 27 52 r presets;
#X obj 27 74 bang;
#X obj 66 79 r stop;
#X obj 35 110 timer;
#X obj 35 132 / 1000;
#X obj 35 154 / 60;
#X msg 35 176 stopped at \$1 min;
#X obj 35 197 print ORKNA;
#X connect 0 0 1 0;
#X connect 1 0 3 0;
#X connect 2 0 3 1;
#X connect 3 0 4 0;
#X connect 4 0 5 0;
#X connect 5 0 6 0;
#X connect 6 0 7 0;
#X restore 15 89 pd stopped-at;
#N canvas 0 22 378 222 fullscreen 0;
#X obj 21 32 r fullscreen;
#X obj 14 66 sel 1;
#X msg 33 90 . \, fullscreen disabled \, . \,;
#X msg 14 125 .................... \, fullscreen mode ON (on next preset
load) \, .................... \, Use ESC to exit fullscreen \, ....................
;
#X obj 14 173 print ORKNA;
#X connect 0 0 1 0;
#X connect 1 0 3 0;
#X connect 1 1 2 0;
#X connect 2 0 4 0;
#X connect 3 0 4 0;
#X restore 15 108 pd fullscreen;
#N canvas 608 40 469 448 INSTRUCTIONS 0;
#X obj 41 19 r pd;
#X obj 39 84 route audio-properties audio-dialog;
#X obj 36 121 bang;
#X obj 42 56 spigot 1;
#X msg 127 56 0;
#X msg 157 161 DONE! \, Now select a PRESET and LOAD IT;
#X obj 162 111 t b b b;
#X msg 217 113 10;
#X msg 35 190 NOW: choose your audio interface when the dialog appears
\, (If it does not appear go to: MEDIA>AUDIO SETTINGS);
#X obj 92 112 del 200;
#X obj 217 135 s load-lines;
#X obj 27 418 print ORKNA-INSTRUCTIONS;
#X msg 80 358 . \, CHOOSE \, --> FULLSCREEN MODE 1 or 0 (default 0)
\, --> SAMPLE amount (recommended 2-33) \, --> HARMONICS (recommended
2-10) \, and then hit LOAD \, .;
#X obj 143 260 r final-instructions;
#X obj 121 290 del 2000;
#X connect 0 0 3 0;
#X connect 1 0 2 0;
#X connect 1 1 9 0;
#X connect 2 0 8 0;
#X connect 3 0 1 0;
#X connect 4 0 3 1;
#X connect 5 0 11 0;
#X connect 6 0 5 0;
#X connect 6 1 4 0;
#X connect 6 2 7 0;
#X connect 7 0 10 0;
#X connect 8 0 11 0;
#X connect 9 0 6 0;
#X connect 12 0 11 0;
#X connect 13 0 14 0;
#X connect 14 0 12 0;
#X restore 15 51 pd INSTRUCTIONS;
#N canvas 0 22 450 300 sample-info 0;
#X obj 39 241 print ORKNA;
#X msg 19 57 . \, audio format set to: \$1 \, .;
#X msg 86 128 . \, sample filename is now set to: \$1 \, .;
#X obj 89 97 r sample-filename;
#X obj 27 28 r audio-format;
#X obj 138 180 r current-filename;
#X msg 138 202 \, . \, current filename is: \$1.\$2 \, .;
#X connect 1 0 0 0;
#X connect 2 0 0 0;
#X connect 3 0 2 0;
#X connect 4 0 1 0;
#X connect 5 0 6 0;
#X connect 6 0 0 0;
#X restore 15 127 pd sample-info;
#X restore 254 146 pd printer;
#N canvas 493 22 336 457 filename 0;
#X obj 12 210 bng 58 250 50 0 empty fn-step-2 2 14 29 0 50 -262144
-262144 -1;
#X text 78 215 <--;
#X text 78 226 <--;
#X text 197 76 <-- filename here;
#N canvas 643 22 412 303 filename-stuff 0;
#X obj 63 55 t b b;
#X msg 291 168 color 16 22 22;
#X msg 207 38 \; pd-filename editmode 1 \;;
#X obj 63 33 r fn-step-1-bang;
#X obj 295 134 del 10000;
#X msg 100 155 color 16 22 22;
#X msg 128 201 color 0 0 22;
#X obj 125 258 s fn-step-1;
#X obj 292 257 s fn-step-2;
#X connect 0 0 4 0;
#X connect 0 0 5 0;
#X connect 0 1 2 0;
#X connect 1 0 8 0;
#X connect 3 0 0 0;
#X connect 4 0 1 0;
#X connect 4 0 6 0;
#X connect 5 0 7 0;
#X connect 6 0 7 0;
#X restore 203 418 pd filename-stuff;
#X obj 13 192 cnv 8 300 8 empty empty empty 20 12 0 14 -1 -66577 0
;
#X obj 11 59 cnv 55 55 55 empty fn-step-1 1 12 28 0 50 -24198 -1 0
;
#X text 12 23 REPLACE NAME WITH YOUR SAMPLE NAME;
#X text 111 92 DONT_USE_SPACES!!!!;
#N canvas 0 22 403 241 about-filenames 0;
#X text 53 152 *NOTE: the dash (-) is very important.*;
#X text 13 14 You can input any .wav or .aiff audio sample you want
(defaults to wav) \, as long as you:;
#X text 11 64 1 Put all your samples in the "sample" folder.;
#X text 12 88 2 Rename all files with the same name (e.g \, "your_sample")
and with increasing indices (e.g \, "your_sample-1" \, "your_sample-2"
... your_sample-33");
#X text 13 176 3 Samples over 90 seconds will be read up to 90 seconds.
;
#X restore 203 398 pd about-filenames;
#X obj 12 287 cnv 8 300 8 empty empty empty 20 12 0 14 -1 -66577 0
;
#X obj 260 23 bng 15 250 50 0 filename-vis-0 empty close 17 7 0 10
-262144 -1 -1;
#X obj 13 304 tgl 50 0 type type-set wav/aiff 60 25 0 30 -262144 -1
-1 0 1;
#X text 79 344 (default wav);
#X obj 14 366 cnv 8 300 8 empty empty empty 20 12 0 14 -1 -66577 0
;
#X text 107 214 CHANGE TO RUN MODE (*) AND CLICK THIS BANG, f 24;
#X text 18 424 MENU>EDIT>EDIT MODE;
#X text 15 390 (*) Go back to run mode:;
#X text 55 405 CMD+E (Ctrl+E);
#X text 76 242 NOTE:this will bang the message updating AND PRINTING
the filname to the console, f 39;
#X text 70 299 toggle between wav or aiff;
#X obj 11 125 cnv 15 300 60 empty empty empty 20 12 0 14 -204800 -66577
0;
#X msg 248 160 myfile;
#X msg 20 161 THeBest_Sample_inTheWorld;
#X msg 184 161 BirdCALL;
#X text 17 138 just examples for possible names:;
#X obj 13 42 cnv 8 300 8 empty empty empty 20 12 0 14 -1 -66577 0;
#X obj 13 12 cnv 8 300 8 empty empty empty 20 12 0 14 -1 -66577 0;
#X msg 84 74 your_sample;
#N canvas 38 415 267 294 change-sample-name 0;
#X obj 45 241 s sample-name;
#X obj 41 42 inlet;
#X obj 173 169 s fn-step-2;
#X obj 41 64 t a b;
#X obj 85 56 del 250;
#X msg 167 125 color 0 0 22;
#X obj 87 105 del 5000;
#X obj 158 62 loadbang;
#X obj 96 171 s fn-step-1;
#X msg 88 137 color 16 22 22;
#X connect 1 0 3 0;
#X connect 3 0 0 0;
#X connect 3 1 4 0;
#X connect 4 0 5 0;
#X connect 4 0 6 0;
#X connect 5 0 2 0;
#X connect 6 0 9 0;
#X connect 7 0 5 0;
#X connect 7 0 9 0;
#X connect 9 0 8 0;
#X restore 80 106 pd change-sample-name;
#X connect 0 0 28 0;
#X connect 28 0 29 0;
#X restore 254 165 pd filename;
#X obj 130 54 bng 10 250 50 0 filename-vis filename-vis-set filename
10 4 0 10 -204786 -1 -1;
#N canvas 0 22 450 300 filename-vis 0;
#X obj 79 30 r filename-vis;
#X obj 225 17 r filename-vis-0;
#X msg 225 39 \; pd-filename vis 0 \;;
#X msg 79 52 \; pd-filename vis 1 \; fn-step-2 color 0 0 22 \; fn-step-1-bang
bang \;;
#X connect 0 0 3 0;
#X connect 1 0 2 0;
#X restore 254 70 pd filename-vis;
#X connect 4 0 8 0;
#X connect 7 0 4 0;
#X connect 10 0 12 0;
#X connect 12 0 13 0;
#X connect 13 0 11 0;
#X connect 18 0 7 0;
#X coords 0 -1 1 1 200 60 2 50 50;
#X restore 37 10 pd main-controls;
#X obj 107 78 hsl 128 17 0 127 0 0 mainlevel mainlevel-set mainlevel
30 8 0 10 -262144 -1 -1 1600 1;
#N canvas 247 617 248 74 stuff 0;
#N canvas 250 576 224 202 mixer 0;
#X obj 20 14 catch~ dacout1;
#X obj 65 38 catch~ dacout2;
#X obj 20 155 dac~ 1 2;
#X obj 80 62 r mainlevel;
#X obj 80 84 pack f 10;
#X obj 80 106 line~;
#X obj 20 131 *~;
#X obj 65 132 *~;
#X connect 0 0 6 0;
#X connect 1 0 7 0;
#X connect 3 0 4 0;
#X connect 4 0 5 0;
#X connect 5 0 6 1;
#X connect 5 0 7 1;
#X connect 6 0 2 0;
#X connect 7 0 2 1;
#X restore 47 52 pd mixer;
#N canvas 253 612 215 103 samples 0;
#X obj 18 80 array define durations 33;
#N canvas 0 22 180 255 tot-dur 0;
#X obj 15 44 array max durations;
#X floatatom 15 110 5 0 0 0 - - -;
#X obj 15 66 / 44100;
#X obj 14 130 / 60;
#X floatatom 14 152 5 0 0 0 - - -;
#X obj 15 88 * 100;
#X obj 14 171 / 60;
#X floatatom 14 193 5 0 0 0 - - -;
#X obj 14 212 print hours;
#X obj 15 22 r get-tot-dur;
#X obj 55 87 r speed;
#X connect 0 0 2 0;
#X connect 1 0 3 0;
#X connect 2 0 5 0;
#X connect 3 0 4 0;
#X connect 4 0 6 0;
#X connect 5 0 1 0;
#X connect 6 0 7 0;
#X connect 7 0 8 0;
#X connect 9 0 0 0;
#X connect 10 0 5 1;
#X restore 109 60 pd tot-dur;
#X obj 18 13 r sample-amount;
#X obj 18 35 change;
#X msg 18 57 resize \$1;
#X connect 2 0 3 0;
#X connect 3 0 4 0;
#X connect 4 0 0 0;
#X restore 12 11 pd samples;
#N canvas 250 579 224 199 fx 0;
#X obj 13 9 catch~ cook-1;
#X obj 117 10 catch~ cook-2;
#X obj 13 168 throw~ dacout1;
#X obj 117 169 throw~ dacout2;
#X obj 23 32 env~;
#X obj 23 54 dbtorms;
#X obj 23 96 int;
#X obj 23 76 * 2000;
#X obj 24 116 + 100;
#X obj 24 138 s tmpo-range;
#X text 67 89 no fx;
#X text 129 90 so far...;
#X connect 0 0 2 0;
#X connect 0 0 4 0;
#X connect 1 0 3 0;
#X connect 4 0 5 0;
#X connect 5 0 7 0;
#X connect 6 0 8 0;
#X connect 7 0 6 0;
#X connect 8 0 9 0;
#X restore 11 52 pd fx;
#N canvas 419 400 861 378 controls 0;
#X msg 233 60 3;
#X msg 261 60 1;
#X msg 289 60 0.5;
#X msg 319 60 0.1;
#X msg 348 60 0.01;
#X floatatom 57 259 5 0 0 0 - - -;
#X obj 57 278 s gliss-t;
#X floatatom 63 311 5 0 0 0 - - -;
#X obj 63 330 s amp-t;
#X msg 404 61 0;
#X msg 178 60 20;
#X msg 206 60 10;
#X msg 148 60 100;
#X obj 456 151 t b f;
#X obj 456 195 pow;
#X floatatom 456 217 5 0 0 0 - - -;
#X obj 419 109 hradio 15 1 0 8 empty empty empty 0 -8 0 10 -262144
-1 -1 7;
#X obj 441 249 f;
#X obj 441 271 s bsize;
#X obj 427 205 bng 15 250 50 0 empty empty empty 17 7 0 10 -262144
-1 -1;
#X obj 456 173 i 2;
#X obj 419 128 hradio 15 1 0 8 empty empty empty 0 -8 0 10 -262144
-1 -1 2;
#X obj 419 147 + 8;
#X obj 471 249 s hann-size;
#X floatatom 143 252 5 0 0 0 - - -;
#X obj 124 278 s span-t;
#X floatatom 146 304 5 0 0 0 - - -;
#X obj 124 325 s phase-t;
#X obj 260 330 s envel;
#X msg 249 275 set hann;
#X msg 333 297 set expo;
#X msg 226 252 set rexpo;
#X obj 146 118 s speed;
#X obj 150 223 r tmpo;
#X obj 27 203 s vibrato;
#X floatatom 29 155 5 0 0 0 - - -;
#X obj 29 174 pack;
#X floatatom 68 146 5 0 0 0 - - -;
#X obj 68 165 t b f;
#X msg 240 23 2;
#X floatatom 227 173 5 0 0 0 - - -;
#X obj 227 192 s bp-f;
#X floatatom 272 172 5 0 0 0 - - -;
#X obj 272 191 s bp-q;
#X msg 317 275 set gauss-t;
#X floatatom 620 92 5 0 0 0 - - -;
#X obj 620 133 s fd_gauss-t;
#X floatatom 655 37 5 0 0 0 - - -;
#X floatatom 698 58 5 0 0 0 - - -;
#X obj 620 111 pack f 0 f;
#X obj 698 77 t b f;
#X obj 655 56 t b f;
#X obj 630 262 s expo-q;
#X obj 627 240 exp;
#X obj 626 168 hsl 128 15 0 127 0 0 empty empty empty -2 -8 0 10 -262144
-1 -1 0 1;
#X obj 620 194 / 127;
#X obj 620 216 * 5;
#X obj 693 267 exp;
#X obj 689 201 hsl 128 15 0 127 0 0 empty empty empty -2 -8 0 10 -262144
-1 -1 0 1;
#X obj 686 221 / 127;
#X obj 686 243 * 5;
#X obj 696 289 s rexpo-q;
#N canvas 138 22 490 726 presets 0;
#X obj 198 88 sel 0 1 2 3 4 5;
#X obj 383 7 r speed-set;
#X obj 383 51 s speed;
#X obj 383 29 spigot 1;
#X obj 117 5 r presets;
#X msg 64 30 1;
#X obj 18 58 change 0;
#X obj 18 4 r stop;
#X msg 18 26 set 0;
#X msg 325 50 0 10;
#X obj 162 80 f;
#X obj 324 73 line;
#X obj 154 55 del 10;
#X obj 324 95 s mainlevel-set;
#X obj 245 20 r mainlevel-line;
#X msg 245 42 \$1 350;
#X msg 23 135 \; gliss-t 11 \; amp-t 76 \; span-t 150 \; phase-t 153
\; bsize 1024 \; speed-set 100 \; auto 1 \; async 0 \; pseudo-concatenate
0 \; mainlevel-line 100 \; envel set gauss-t \; get-tot-dur bang \;
vibrato 0.2 0.9 \;;
#X msg 174 129 \; gliss-t 4 \; amp-t 988 \; span-t 254 \; phase-t 133
\; bsize 8192 \; speed-set 10 \; auto 1 \; async 0 \; pseudo-concatenate
0 \; mainlevel-line 100 \; envel set expo \; get-tot-dur bang \; vibrato
9 0.1 \;;
#X msg 318 126 \; gliss-t 2 \; amp-t 127 \; span-t 64 \; phase-t 68
\; bsize 2048 \; speed-set 10 \; auto 1 \; async 0 \; pseudo-concatenate
0 \; mainlevel-line 100 \; envel set expo \; get-tot-dur bang \; vibrato
10 0.05 \;;
#X msg 22 323 \; gliss-t 2 \; amp-t 2500 \; span-t 64 \; phase-t 68
\; bsize 2048 \; speed-set 10 \; auto 0 \; async 1 \; pseudo-concatenate
0 \; tmpo-min 30 \; mainlevel-line 100 \; envel set expo \; get-tot-dur
bang \; vibrato 8 0.05 \;;
#X msg 169 322 \; gliss-t 1 \; amp-t 50 \; span-t 64 \; phase-t 68
\; bsize 2048 \; speed-set 3 \; auto 0 \; async 0 \; pseudo-concatenate
1 \; mainlevel-line 100 \; envel set hann \; get-tot-dur bang \; vibrato
12 0.6 \;, f 23;
#X obj 196 514 sel 6 7 8 9;
#X msg 18 80 \; netsend-connect bang \; netsend send init bang;
#X msg 15 542 \; gliss-t 2 \; amp-t 2500 \; span-t 180 \; phase-t 350
\; bsize 1024 \; speed-set 100 \; auto 0 \; async 0 \; pseudo-concatenate
1 \; tmpo-min 51 \; mainlevel-line 20 \; expo-q-set 100 \; envel set
expo \; vcf-q 6000 \; get-tot-dur bang \; vibrato 4 0.17 \;;
#X msg 192 540 \; gliss-t 4 \; amp-t 58 \; span-t 180 \; phase-t 350
\; bsize 512 \; speed-set 100 \; auto 0 \; async 0 \; pseudo-concatenate
1 \; tmpo-min 51 \; mainlevel-line 20 \; sync-q 32 \; envel set sync
\; vcf-q 1979 \; get-tot-dur bang \; vibrato 12 0.2 \;;
#X msg 319 322 \; gliss-t 1 \; amp-t 5000 \; span-t 5000 \; phase-t
5000 \; bsize 1024 \; speed-set 100 \; auto 0 \; async 0 \; expo-q-set
100 \; pseudo-concatenate 1 \; mainlevel-line 20 \; envel set expo
\; get-tot-dur bang \; vibrato 0.2 0.04 \;, f 23;
#X obj 373 650 s netsend;
#X obj 135 28 t b f b f;
#X obj 348 541 t f b;
#X obj 348 563 pack;
#X msg 338 592 send preset \$1 \, send fullscreen \$2, f 16;
#X obj 391 537 r fullscreen;
#X obj 384 565 f;
#X connect 0 0 16 0;
#X connect 0 1 17 0;
#X connect 0 2 18 0;
#X connect 0 3 19 0;
#X connect 0 4 20 0;
#X connect 0 5 25 0;
#X connect 0 6 21 0;
#X connect 1 0 3 0;
#X connect 3 0 2 0;
#X connect 4 0 27 0;
#X connect 5 0 6 0;
#X connect 6 0 22 0;
#X connect 7 0 8 0;
#X connect 8 0 6 0;
#X connect 9 0 11 0;
#X connect 10 0 0 0;
#X connect 11 0 13 0;
#X connect 12 0 10 0;
#X connect 14 0 15 0;
#X connect 15 0 11 0;
#X connect 21 0 23 0;
#X connect 21 1 24 0;
#X connect 27 0 5 0;
#X connect 27 0 12 0;
#X connect 27 1 10 1;
#X connect 27 2 9 0;
#X connect 27 3 28 0;
#X connect 28 0 29 0;
#X connect 28 1 32 0;
#X connect 29 0 30 0;
#X connect 30 0 26 0;
#X connect 31 0 32 1;
#X connect 32 0 29 1;
#X restore 35 26 pd presets;
#X msg 235 224 set 3stagelin;
#X msg 265 297 set sync;
#X floatatom 138 167 5 0 0 0 - - -;
#X obj 138 186 s vcf-q;
#X obj 550 166 swap 1;
#X obj 550 188 -;
#X floatatom 550 210 5 0 0 0 - - -;
#X floatatom 550 251 5 0 0 0 - - -;
#X obj 550 229 * 500;
#X obj 580 289 s tmpo-min;
#X obj 722 142 r expo-q-set;
#X floatatom 749 83 5 0 0 0 - - -;
#X obj 749 102 s sync-q;
#N canvas 0 22 626 370 tempo-stuff 0;
#X obj 107 247 bng 15 250 50 0 empty empty empty 17 7 0 10 -262144
-1 -1;
#X obj 107 269 s pic;
#X msg 191 296 \; pic-\$1 bang;
#X obj 99 116 tgl 15 0 empty empty empty 17 7 0 10 -262144 -1 -1 0
1;
#X obj 99 136 s auto;
#X obj 193 114 tgl 15 0 empty empty empty 17 7 0 10 -262144 -1 -1 0
1;
#X msg 234 125 tempo \$1 samp;
#X obj 192 276 + 1;
#X obj 193 177 metro 1;
#X obj 293 228 random 222;
#X msg 231 101 tempo 1 msec;
#X obj 192 253 random 10;
#X floatatom 348 207 5 0 0 0 - - -;
#X obj 343 163 r tmpo-range;
#X obj 293 249 + 1;
#X obj 293 271 s tmpo;
#X obj 233 148 r tmpo;
#X obj 178 26 r speed;
#X obj 178 48 > 0;
#X obj 193 199 t b b;
#X obj 178 70 sel 1;
#X obj 343 185 change;
#X obj 440 20 r stop;
#X obj 232 80 r async;
#X obj 385 224 r tmpo-min;
#X msg 443 125 \; speed 0 \; netsend disconnect;
#N canvas 673 589 450 300 pseudo-concatenate 0;
#X obj 156 15 r bsize;
#X obj 113 198 f;
#X obj 113 220 + 1;
#X obj 113 242 mod 10;
#X msg 162 228 \; pic-\$1 bang \;;
#X obj 95 21 inlet;
#X obj 162 202 + 1;
#X obj 95 131 metro;
#X obj 194 174 r sample-amount;
#X floatatom 158 81 5 0 0 0 - - -;
#X obj 156 37 / 44.1;
#X obj 95 153 t b b;
#X obj 163 106 +;
#X obj 226 138 t b f;
#X floatatom 291 59 5 0 0 0 - - -;
#X floatatom 275 116 5 0 0 0 - - -;
#X obj 156 59 / 2;
#X floatatom 285 142 5 0 0 0 - - -;
#X obj 226 94 random 15;
#X obj 226 116 - 5;
#X connect 0 0 10 0;
#X connect 1 0 2 0;
#X connect 1 0 6 0;
#X connect 2 0 3 0;
#X connect 3 0 1 1;
#X connect 5 0 7 0;
#X connect 6 0 4 0;
#X connect 7 0 11 0;
#X connect 8 0 3 1;
#X connect 9 0 12 0;
#X connect 10 0 16 0;
#X connect 10 0 14 0;
#X connect 11 0 1 0;
#X connect 11 1 18 0;
#X connect 12 0 7 1;
#X connect 13 0 12 0;
#X connect 13 1 12 1;
#X connect 13 1 17 0;
#X connect 14 0 18 1;
#X connect 15 0 19 1;
#X connect 16 0 9 0;
#X connect 18 0 19 0;
#X connect 19 0 13 0;
#X restore 232 60 pd pseudo-concatenate;
#X obj 232 42 tgl 15 0 empty empty empty 17 7 0 10 -262144 -1 -1 0
1;
#X obj 232 22 r pseudo-concatenate;
#X obj 440 42 t b b;
#X msg 496 47 0 100;
#X obj 496 69 line;
#X obj 496 91 s mainlevel-set;
#X obj 441 102 del 200;
#X obj 243 196 r sample-amount;
#X floatatom 385 246 5 0 0 0 - - -;
#X connect 0 0 1 0;
#X connect 3 0 4 0;
#X connect 5 0 8 0;
#X connect 6 0 8 0;
#X connect 7 0 2 0;
#X connect 8 0 19 0;
#X connect 9 0 14 0;
#X connect 10 0 8 0;
#X connect 11 0 7 0;
#X connect 12 0 9 1;
#X connect 13 0 21 0;
#X connect 14 0 15 0;
#X connect 16 0 8 1;
#X connect 17 0 18 0;
#X connect 18 0 20 0;
#X connect 19 0 11 0;
#X connect 19 1 9 0;
#X connect 20 1 3 0;
#X connect 20 1 5 0;
#X connect 20 1 27 0;
#X connect 21 0 12 0;
#X connect 22 0 29 0;
#X connect 23 0 5 0;
#X connect 24 0 14 1;
#X connect 24 0 35 0;
#X connect 27 0 26 0;
#X connect 28 0 27 0;
#X connect 29 0 33 0;
#X connect 29 1 30 0;
#X connect 30 0 31 0;
#X connect 31 0 32 0;
#X connect 33 0 25 0;
#X connect 34 0 11 1;
#X restore 35 46 pd tempo-stuff;
#X connect 0 0 32 0;
#X connect 1 0 32 0;
#X connect 2 0 32 0;
#X connect 3 0 32 0;
#X connect 4 0 32 0;
#X connect 5 0 6 0;
#X connect 7 0 8 0;
#X connect 9 0 32 0;
#X connect 10 0 32 0;
#X connect 11 0 32 0;
#X connect 12 0 32 0;
#X connect 13 0 20 0;
#X connect 13 1 14 1;
#X connect 14 0 15 0;
#X connect 15 0 17 1;
#X connect 16 0 13 0;
#X connect 17 0 18 0;
#X connect 17 0 23 0;
#X connect 19 0 17 0;
#X connect 20 0 14 0;
#X connect 21 0 22 0;
#X connect 22 0 13 0;
#X connect 24 0 25 0;
#X connect 26 0 27 0;
#X connect 29 0 28 0;
#X connect 30 0 28 0;
#X connect 31 0 28 0;
#X connect 33 0 24 0;
#X connect 33 0 26 0;
#X connect 35 0 36 0;
#X connect 36 0 34 0;
#X connect 37 0 38 0;
#X connect 38 0 36 0;
#X connect 38 1 36 1;
#X connect 39 0 32 0;
#X connect 40 0 41 0;
#X connect 42 0 43 0;
#X connect 44 0 28 0;
#X connect 45 0 49 0;
#X connect 47 0 51 0;
#X connect 48 0 50 0;
#X connect 49 0 46 0;
#X connect 50 0 49 0;
#X connect 50 1 49 2;
#X connect 51 0 49 0;
#X connect 51 1 49 1;
#X connect 53 0 52 0;
#X connect 54 0 55 0;
#X connect 55 0 56 0;
#X connect 55 0 67 0;
#X connect 56 0 53 0;
#X connect 57 0 61 0;
#X connect 58 0 59 0;
#X connect 59 0 60 0;
#X connect 60 0 57 0;
#X connect 63 0 28 0;
#X connect 64 0 28 0;
#X connect 65 0 66 0;
#X connect 67 0 68 0;
#X connect 67 1 68 1;
#X connect 68 0 69 0;
#X connect 69 0 71 0;
#X connect 70 0 72 0;
#X connect 71 0 70 0;
#X connect 73 0 54 0;
#X connect 74 0 75 0;
#X restore 159 31 pd controls;
#N canvas 249 611 226 141 netsend 0;
#X msg 14 34 connect localhost 3001;
#X obj 14 114 netsend;
#X obj 14 9 r netsend-connect;
#X obj 27 57 r netsend;
#X obj 34 81 r batch-out;
#X obj 89 108 tgl 15 0 empty empty empty 17 7 0 10 -262144 -1 -1 1
1;
#X connect 0 0 1 0;
#X connect 1 0 5 0;
#X connect 2 0 0 0;
#X connect 3 0 1 0;
#X connect 4 0 1 0;
#X restore 103 52 pd netsend;
#N canvas 251 612 347 73 synthesis 0;
#X obj 10 10 clone -s 1 voice 10 your_sample wav ../samples 6;
#X obj 10 50 clone -s 1 batch 10 your_sample;
#X restore 80 32 pd synthesis;
#X obj 169 52 bng 17 250 50 0 netsend-connect empty empty 17 7 0 10
-262144 -1 -1;
#N canvas 249 612 227 68 windows 0;
#X obj 14 13 fd_windows 4096;
#X restore 12 32 pd windows;
#N canvas 0 22 264 67 declares 0;
#X obj 16 11 declare -path lib -stdlib sigmund~;
#X restore 80 11 pd declares;
#X restore 37 78 pd stuff;
