#N canvas 19 475 226 110 10;
#X declare -path lib;
#X declare -lib Gem;
#N canvas 529 317 446 375 controls 0;
#X msg 15 48 \; alpha 1 0;
#X msg 16 7 \; alpha 0 1;
#X msg 14 88 \; cbe draw fill;
#X msg 87 11 \; alpha 1 1;
#X msg 90 47 \; alpha 0 0;
#X msg 105 88 \; cbe draw point;
#X msg 200 88 \; cbe draw line;
#X obj 120 135 hsl 128 15 0 127 0 0 shin shin-set shin -2 -8 0 10 -262144
-1 -1 0 1;
#X msg 117 201 \; txt env \$1;
#X obj 117 180 hradio 15 1 0 6 empty empty empty 0 -6 0 8 -262144 -1
-1 4;
#X msg 15 162 \; sph point 1 3;
#X text 264 5 click these;
#N canvas 0 22 527 463 camera-view 0;
#X msg 99 410 \; cam distance \$1;
#X obj 55 328 / 127;
#X obj 55 350 * -20;
#X obj 55 372 + 20;
#X obj 55 394 sel 0;
#X obj 95 383 * 1;
#X obj 128 336 * -2;
#X obj 127 358 + 1;
#X obj 127 380 t b f;
#X obj 264 132 hsl 128 15 0 127 0 0 lookX lookX-set lookX -2 -8 0 10
-262144 -1 -1 0 1;
#X msg 247 407 \; cam lookX \$1;
#X msg 341 407 \; cam lookY \$1;
#X msg 422 394 \; cam lookZ \$1;
#X obj 247 338 / 127;
#X obj 247 360 * 8;
#X obj 247 382 - 4;
#X obj 341 339 / 127;
#X obj 341 361 * 8;
#X obj 341 383 - 4;
#X obj 241 122 vsl 15 50 0 127 0 0 lookY lookY-set lookY 0 -9 0 10
-262144 -1 -1 0 1;
#X obj 264 161 hsl 128 15 0 127 0 0 lookZ lookZ-set lookZ -2 -8 0 10
-262144 -1 -1 0 1;
#X obj 423 355 / 127;
#X obj 423 377 * 6;
#X obj 282 237 spigot;
#X obj 325 237 spigot;
#X obj 282 193 gemmouse 127 -127;
#X obj 306 215 + 127;
#X obj 282 215 - 0;
#X obj 47 191 / 127;
#X obj 47 235 sel 0;
#X obj 47 213 * 4;
#N canvas 139 158 774 278 gemkeys 0;
#X obj 42 68 sel 13 1 0 2 126 125 49, f 108;
#X obj 42 40 gemkeyboard;
#X msg 42 161 \; cam forward 1 \; cam reverse 0 \; cam left 0 \; cam
right 0 \; cam up 0 \; cam down 0 \;;
#X msg 143 161 \; cam forward 0 \; cam reverse 1 \; cam left 0 \; cam
right 0 \; cam up 0 \; cam down 0 \;;
#X msg 245 160 \; cam forward 0 \; cam reverse 0 \; cam left 1 \; cam
right 0 \; cam up 0 \; cam down 0 \;;
#X msg 341 159 \; cam forward 0 \; cam reverse 0 \; cam left 0 \; cam
right 1 \; cam up 0 \; cam down 0 \;;
#X msg 438 158 \; cam forward 0 \; cam reverse 0 \; cam left 0 \; cam
right 0 \; cam up 1 \; cam down 0 \;;
#X msg 535 157 \; cam forward 0 \; cam reverse 0 \; cam left 0 \; cam
right 0 \; cam up 0 \; cam down 1 \;;
#X obj 603 5 r resetcam;
#X obj 603 27 t b b;
#X msg 516 22 \; cam reset;
#X msg 633 118 \; cam forward 0 \; cam reverse 0 \; cam left 0 \; cam
right 0 \; cam up 0 \; cam down 0 \; cam lookX 0 \; cam lookY 0 \;
cam lookZ 0 \;;
#X obj 202 9 sel 53;
#X msg 203 30 \; fullscreen-set 0;
#X connect 0 0 2 0;
#X connect 0 1 3 0;
#X connect 0 2 4 0;
#X connect 0 3 5 0;
#X connect 0 4 6 0;
#X connect 0 5 7 0;
#X connect 0 6 11 0;
#X connect 1 0 0 0;
#X connect 1 0 12 0;
#X connect 8 0 9 0;
#X connect 9 0 10 0;
#X connect 9 1 11 0;
#X connect 12 0 13 0;
#X restore 334 74 pd gemkeys;
#X msg 71 260 \; cam speed \$1;
#X obj 44 170 r speed;
#X obj 106 128 hsl 128 15 0 127 0 0 speed speed-set speed -2 -8 0 10
-262144 -1 -1 0 1;
#X obj 105 162 hsl 128 15 0 127 0 0 distance distance-set distance
-2 -8 0 10 -262144 -1 -1 10000 1;
#X obj 163 145 tgl 15 0 dist-side dist-side-set dist-side 17 7 0 10
-262144 -1 -1 0 1;
#X obj 57 306 r distance;
#X obj 136 308 r dist-side;
#X obj 262 265 s lookX-set;
#X obj 349 259 s lookY-set;
#X obj 246 316 r lookX;
#X obj 340 315 r lookY;
#X obj 423 331 r lookZ;
#X obj 303 114 bng 15 250 50 0 resetcam resetcam-set resetcam 17 7
0 10 -262144 -1 -1;
#X obj 386 100 tglvis camera-view;
#X connect 1 0 2 0;
#X connect 2 0 3 0;
#X connect 3 0 4 0;
#X connect 4 1 5 0;
#X connect 5 0 0 0;
#X connect 6 0 7 0;
#X connect 7 0 8 0;
#X connect 8 0 5 0;
#X connect 8 1 5 1;
#X connect 13 0 14 0;
#X connect 14 0 15 0;
#X connect 15 0 10 0;
#X connect 16 0 17 0;
#X connect 17 0 18 0;
#X connect 18 0 11 0;
#X connect 21 0 22 0;
#X connect 22 0 12 0;
#X connect 23 0 39 0;
#X connect 24 0 40 0;
#X connect 25 0 27 0;
#X connect 25 1 26 0;
#X connect 25 2 23 1;
#X connect 25 2 24 1;
#X connect 26 0 24 0;
#X connect 27 0 23 0;
#X connect 28 0 30 0;
#X connect 29 1 32 0;
#X connect 30 0 29 0;
#X connect 33 0 28 0;
#X connect 37 0 1 0;
#X connect 38 0 6 0;
#X connect 41 0 13 0;
#X connect 42 0 16 0;
#X connect 43 0 21 0;
#X coords 0 -1 1 1 300 80 1 100 100;
#X restore 15 235 pd camera-view;
#X obj 165 23 vsl 15 50 0 127 0 0 separation separation-set separation
0 -9 0 10 -262144 -1 -1 77 1;
#X obj 188 26 bng 15 250 50 0 init init-set init 17 7 0 10 -262144
-1 -1;
#X msg 224 188 \; sph point 1 5;
#X obj 188 45 bng 15 250 50 0 preset2 empty preset2 17 7 0 10 -262144
-1 -1;
#X obj 317 46 vsl 15 128 0 127 0 0 empty empty empty 0 -9 0 10 -262144
-1 -1 0 1;
#X obj 317 182 / 127;
#X msg 226 155 \; sph fill \$1 20;
#X floatatom 319 205 5 0 0 0 - - -, f 5;
#X msg 15 127 \; sph fill 0.01 20;
#X msg 15 197 \; sph line 3 10;
#X floatatom 327 238 5 0 0 0 - - -, f 5;
#X obj 327 257 / 100;
#X obj 327 279 pack f f f;
#X msg 327 301 color \$1 \$2 \$3;
#X obj 327 323 s gemwin;
#X floatatom 358 197 5 0 0 0 - - -, f 5;
#X obj 358 216 / 100;
#X obj 358 238 t b f;
#X floatatom 368 130 5 0 0 0 - - -, f 5;
#X obj 368 149 / 100;
#X obj 368 172 t b f;
#X connect 9 0 8 0;
#X connect 17 0 18 0;
#X connect 18 0 19 0;
#X connect 18 0 20 0;
#X connect 23 0 24 0;
#X connect 24 0 25 0;
#X connect 25 0 26 0;
#X connect 26 0 27 0;
#X connect 28 0 29 0;
#X connect 29 0 30 0;
#X connect 30 0 24 0;
#X connect 30 1 25 1;
#X connect 31 0 32 0;
#X connect 32 0 33 0;
#X connect 33 0 24 0;
#X connect 33 1 25 2;
#X restore 12 67 pd controls;
#N canvas 41 182 481 405 presets 0;
#X obj 36 213 r init;
#X obj 25 11 r preset;
#X obj 25 33 sel 5;
#X obj 170 27 sel 4;
#X obj 290 30 sel 3;
#X msg 312 83 \; alpha 0 0 \; cbe draw line \; sph point 2 10 \; shin-set
1 \; txt env 3 \; separation-set 1 \; distance-set 100 \;;
#X obj 314 199 sel 2;
#X obj 175 216 sel 1;
#X msg 31 65 \; gemwin frame 30 \; alpha 1 1 \; txt env 4 \; cbe draw
lines \; sph fill 0.047 15 \; shin-set 127 \; separation-set 100 \;
distance-set 50;
#X msg 175 239 \; alpha 1 0 \; cbe draw point \; sph line 4 14 \; shin-set
0 \; txt env 4 \; separation-set 50 \; distance-set 60 \;;
#X msg 314 222 \; alpha 0 1 \; cbe draw fill \; sph fill 1 3 \; shin-set
10 \; txt env 4 \; separation-set 1 \; distance-set 100 \;;
#X msg 186 91 \; alpha 0 0 \; cbe draw fill \; sph line 2 3 \; shin-set
0 \; txt env 3 \; separation-set 2 \; distance-set 100 \;;
#X msg 33 235 \; gemwin frame 30 \; alpha 1 1 \; txt env 4 \; cbe draw
point \; sph point 1 3 \; shin-set 50 \; separation-set 3 \; distance-set
0 \; cam forward 1 \; metro-onoff 1 \;;
#X connect 0 0 12 0;
#X connect 1 0 2 0;
#X connect 1 0 3 0;
#X connect 1 0 4 0;
#X connect 2 0 8 0;
#X connect 3 0 11 0;
#X connect 4 0 5 0;
#X connect 4 1 6 0;
#X connect 6 0 10 0;
#X connect 6 1 7 0;
#X connect 7 0 9 0;
#X restore 85 67 pd presets;
#N canvas 171 133 1075 578 score 0;
#X obj 24 179 sel 1700;
#X obj 147 183 sel 2500;
#X obj 24 113 r metro;
#X obj 123 74 r time-sets;
#N canvas 0 22 578 518 time-sets 0;
#X msg 177 67 16;
#X obj 177 113 until;
#X obj 177 146 f;
#X obj 209 148 + 1;
#X msg 345 95 0;
#X obj 177 89 t f b;
#X obj 216 325 + 1;
#X obj 201 351 +;
#X obj 214 476 tabwrite times;
#N canvas 0 22 450 278 (subpatch) 0;
#X array times 16 float 3;
#A 0 1988 9515 18772 17286 11644 16255 15083 6556 8672 19146 19160
14406 26273 34145 30141 31391;
#X coords 0 50000 16 0 200 140 1 0 0;
#X restore 317 283 graph;
#X obj 197 425 +;
#X obj 223 400 f;
#X obj 194 271 t f b;
#X obj 197 376 t f f b;
#X obj 188 176 t f f;
#X obj 185 238 *;
#X obj 224 229 + 1;
#X obj 180 200 t f b;
#X obj 224 207 random 1000;
#X obj 216 303 random 10000;
#X msg 62 62 bang;
#X obj 62 84 t b b;
#X obj 62 106 array get times;
#X obj 65 39 inlet;
#X obj 62 136 s time-sets;
#X floatatom 54 289 5 0 0 0 - - -, f 5;
#X obj 54 308 tabread times;
#X floatatom 54 330 5 0 0 0 - - -, f 5;
#X connect 0 0 5 0;
#X connect 1 0 2 0;
#X connect 2 0 3 0;
#X connect 2 0 14 0;
#X connect 3 0 2 1;
#X connect 4 0 2 1;
#X connect 4 0 11 1;
#X connect 5 0 1 0;
#X connect 5 1 4 0;
#X connect 6 0 7 1;
#X connect 7 0 13 0;
#X connect 10 0 8 0;
#X connect 11 0 10 1;
#X connect 12 0 7 0;
#X connect 12 1 19 0;
#X connect 13 0 10 0;
#X connect 13 1 11 1;
#X connect 13 2 11 0;
#X connect 14 0 17 0;
#X connect 14 1 8 1;
#X connect 15 0 12 0;
#X connect 16 0 15 1;
#X connect 17 0 15 0;
#X connect 17 1 18 0;
#X connect 18 0 16 0;
#X connect 19 0 6 0;
#X connect 20 0 21 0;
#X connect 21 0 22 0;
#X connect 21 1 0 0;
#X connect 22 0 24 0;
#X connect 23 0 20 0;
#X connect 25 0 26 0;
#X connect 26 0 27 0;
#X restore 28 54 pd time-sets;
#X msg 28 32 bang;
#X obj 123 118 unpack f f f f;
#X obj 123 96 list split 4;
#X obj 272 181 sel 1700;
#X obj 395 185 sel 2500;
#X obj 32 466 sel 1700;
#X obj 155 470 sel 2500;
#X obj 130 437 unpack f f f f;
#X obj 280 468 sel 1700;
#X obj 403 472 sel 2500;
#X obj 514 183 sel 1700;
#X obj 637 187 sel 2500;
#X obj 613 122 unpack f f f f;
#X obj 762 185 sel 1700;
#X obj 885 189 sel 2500;
#X obj 531 473 sel 1700;
#X obj 654 477 sel 2500;
#X obj 630 412 unpack f f f f;
#X obj 779 475 sel 1700;
#X obj 902 479 sel 2500;
#X obj 613 100 list split 4;
#X obj 132 415 list split 4;
#X obj 35 4 r init;
#X msg 25 224 \; preset 1 \;;
#X msg 148 229 \; preset 2 \;;
#X msg 273 226 \; preset 3 \;;
#X msg 396 231 \; preset 4 \;;
#X msg 515 228 \; preset 5 \;;
#X obj 849 314 random 5;
#X msg 809 345 \; preset \$1 \;;
#X connect 0 0 28 0;
#X connect 0 1 1 0;
#X connect 1 0 29 0;
#X connect 1 1 8 0;
#X connect 2 0 0 0;
#X connect 3 0 7 0;
#X connect 5 0 4 0;
#X connect 6 0 0 1;
#X connect 6 1 1 1;
#X connect 6 2 8 1;
#X connect 6 3 9 1;
#X connect 7 0 6 0;
#X connect 7 1 25 0;
#X connect 8 0 30 0;
#X connect 8 1 9 0;
#X connect 9 0 31 0;
#X connect 9 1 15 0;
#X connect 10 0 29 0;
#X connect 10 1 11 0;
#X connect 11 0 28 0;
#X connect 11 1 13 0;
#X connect 12 0 10 1;
#X connect 12 1 11 1;
#X connect 12 2 13 1;
#X connect 12 3 14 1;
#X connect 13 0 31 0;
#X connect 13 1 14 0;
#X connect 14 0 32 0;
#X connect 14 1 20 0;
#X connect 15 0 32 0;
#X connect 15 1 16 0;
#X connect 16 0 33 0;
#X connect 16 1 18 0;
#X connect 17 0 15 1;
#X connect 17 1 16 1;
#X connect 17 2 18 1;
#X connect 17 3 19 1;
#X connect 18 0 33 0;
#X connect 18 1 19 0;
#X connect 19 0 33 0;
#X connect 19 1 10 0;
#X connect 20 0 33 0;
#X connect 20 1 21 0;
#X connect 21 0 30 0;
#X connect 21 1 23 0;
#X connect 22 0 20 1;
#X connect 22 1 21 1;
#X connect 22 2 23 1;
#X connect 22 3 24 1;
#X connect 23 0 33 0;
#X connect 23 1 24 0;
#X connect 24 0 28 0;
#X connect 25 0 17 0;
#X connect 25 1 26 0;
#X connect 26 0 12 0;
#X connect 26 1 22 0;
#X connect 27 0 5 0;
#X connect 33 0 34 0;
#X restore 151 67 pd score;
#X obj 73 44 tgl 8 0 fullscreen-set fullscreen fullscreen-set 10 4
0 8 -262144 -1 -1 0 1;
#N canvas 19 614 238 181 stuff 0;
#N canvas 249 611 143 129 netreceive 0;
#X msg 14 34 listen 3001;
#X obj 14 56 netreceive;
#X obj 14 80 s from-audio-pd;
#X obj 14 12 loadbang;
#X connect 0 0 1 0;
#X connect 1 0 2 0;
#X connect 3 0 0 0;
#X restore 15 74 pd netreceive;
#N canvas 449 166 450 300 gemwin 0;
#X obj 25 190 gemwin;
#X obj 25 15 loadbang;
#X obj 33 165 r gemwin;
#X obj 204 195 gemhead;
#X obj 204 240 world_light;
#X msg 25 37 500;
#X obj 204 217 rotateXYZ;
#X floatatom 268 187 5 0 0 0 - - -, f 5;
#X floatatom 304 188 5 0 0 0 - - -, f 5;
#X floatatom 340 188 5 0 0 0 - - -, f 5;
#X msg 25 127 0 \, destroy \, FSAA 4 \, lighting 1 \, dimen \$1 \$1
\, border 0 \, offset 525 0 \, perspec -1 1 -1 1 4 50 \, fullscreen
\$2 \, create \, 1, f 63;
#N canvas 0 22 450 300 anti-aliasing 0;
#X msg 51 35 0;
#X msg 82 35 2;
#X msg 111 35 4;
#X msg 172 35 8;
#X msg 142 35 5;
#X msg 93 85 destroy \, FSAA \$1 \, create \, 1;
#X connect 0 0 5 0;
#X connect 1 0 5 0;
#X connect 2 0 5 0;
#X connect 3 0 5 0;
#X connect 4 0 5 0;
#X restore 291 23 pd anti-aliasing;
#X obj 25 106 pack f 0;
#X obj 80 37 t b f;
#X text 202 171 light;
#X obj 81 14 r fullscreen;
#X obj 102 60 r fullscreen-set;
#X obj 101 81 spigot;
#X msg 116 37 1;
#X obj 57 61 change;
#X obj 57 83 t b f;
#X connect 1 0 5 0;
#X connect 2 0 0 0;
#X connect 3 0 6 0;
#X connect 5 0 12 0;
#X connect 6 0 4 0;
#X connect 7 0 6 1;
#X connect 8 0 6 2;
#X connect 9 0 6 3;
#X connect 10 0 0 0;
#X connect 12 0 10 0;
#X connect 13 0 18 0;
#X connect 13 1 19 0;
#X connect 15 0 13 0;
#X connect 16 0 17 0;
#X connect 17 0 19 0;
#X connect 18 0 17 1;
#X connect 19 0 20 0;
#X connect 20 0 5 0;
#X connect 20 1 12 1;
#X restore 15 53 pd gemwin;
#N canvas 17 738 173 54 cubers 0;
#X obj 10 10 clone -s 1 trackube 6 4;
#X restore 135 55 pd cubers;
#N canvas 357 385 450 300 sphere 0;
#X obj 54 86 gemhead -1;
#X obj 54 129 color 0 0 1;
#X obj 56 215 sphere 0.1 20;
#X floatatom 97 192 5 0 0 0 - - -, f 5;
#X obj 178 120 line;
#X obj 56 163 translateXYZ 1 0 0;
#X msg 178 98 -16 \, 4 2000;
#X connect 0 0 1 0;
#X connect 1 0 5 0;
#X connect 3 0 2 1;
#X connect 4 0 5 3;
#X connect 6 0 4 0;
#X restore 138 97 pd sphere;
#N canvas 228 584 198 210 metro 0;
#X obj 34 104 metro 50;
#X obj 34 126 f;
#X obj 68 127 + 1;
#X obj 35 17 r metro-onoff;
#X obj 35 60 sel 1;
#X msg 35 82 1;
#X obj 35 39 tgl 15 0 empty empty empty 17 7 0 10 -262144 -1 -1 1 1
;
#X obj 79 81 r metro-speed;
#X obj 34 148 s metro;
#X connect 0 0 1 0;
#X connect 1 0 2 0;
#X connect 1 0 8 0;
#X connect 2 0 1 1;
#X connect 3 0 6 0;
#X connect 4 0 5 0;
#X connect 4 1 1 1;
#X connect 4 1 0 0;
#X connect 5 0 0 0;
#X connect 6 0 4 0;
#X connect 7 0 0 1;
#X restore 15 116 pd metro;
#N canvas 20 100 307 247 from-audio-pd 0;
#X obj 62 69 s init;
#X obj 13 26 r from-audio-pd;
#X obj 13 97 unpack;
#X obj 13 152 pack;
#X msg 101 128 \; cuber-\$1-\$2 \$3 \$4 \$5 \$6;
#X msg 13 174 \; pd-cubers clear \; pd-cubers obj 10 10 clone -s 1
trackube \$1 \$2;
#X obj 108 68 s preset;
#X obj 13 48 route amount init preset fullscreen;
#X obj 170 70 s fullscreen;
#X connect 1 0 7 0;
#X connect 2 0 3 0;
#X connect 2 1 3 1;
#X connect 3 0 5 0;
#X connect 7 0 2 0;
#X connect 7 1 0 0;
#X connect 7 2 6 0;
#X connect 7 3 8 0;
#X connect 7 4 4 0;
#X restore 15 94 pd from-audio-pd;
#X obj 136 34 s gemlist;
#N canvas 142 649 101 106 cam 0;
#X obj 26 19 gemhead;
#X obj 37 42 r cam;
#X obj 29 63 camera;
#X connect 0 0 2 0;
#X connect 1 0 2 0;
#X restore 137 77 pd cam;
#X obj 13 6 declare -path lib;
#X obj 136 12 gemhead;
#X obj 14 30 declare -lib Gem;
#X connect 9 0 6 0;
#X restore 13 40 pd stuff;
#X text 13 11 GEM PATCH (not the main patch);
