#N canvas 347 22 350 463 10;
#X obj 19 233 translateXYZ;
#X obj 19 360 rotateXYZ;
#X obj 36 296 f;
#X obj 66 296 + 1;
#X obj 154 30 unpack f f f f;
#X obj 19 152 alpha;
#X obj 28 108 r alpha;
#X obj 28 130 unpack;
#X obj 68 338 *;
#X obj 96 339 *;
#X obj 19 11 r init;
#X msg 19 33 1;
#X obj 235 52 s \$0-scomp;
#X obj 208 73 s \$0-ccomp;
#X obj 181 93 s \$0-amp;
#X obj 154 113 s \$0-freq;
#X obj 42 171 r \$0-ccomp-line;
#X obj 65 191 r \$0-scomp-line;
#X obj 88 211 r \$0-freq-line;
#X obj 99 318 r \$0-norm-f-line;
#N canvas 0 22 445 587 lines 0;
#X obj 43 99 ftom;
#X obj 43 120 / 127;
#X obj 43 78 line;
#X obj 43 56 pack f 1000;
#X obj 187 228 cos;
#X obj 187 208 * 6.28319;
#X obj 51 199 rmstodb;
#X obj 51 221 / 100;
#X obj 164 64 * 4;
#X obj 269 64 * 4;
#X obj 164 101 pack f 1000;
#X obj 164 121 line;
#X obj 269 100 pack f 1000;
#X obj 269 120 line;
#X obj 51 243 pack f 1000;
#X obj 51 265 line;
#X obj 187 271 * 4;
#X obj 335 189 r separation;
#X obj 340 368 s \$0-sep;
#X obj 179 42 r \$0-sep;
#X obj 202 249 r \$0-sep;
#X obj 335 211 / 127;
#X obj 335 233 * 20;
#X obj 269 20 r \$0-scomp;
#X obj 164 20 r \$0-ccomp;
#X obj 51 178 r \$0-amp;
#X obj 43 32 r \$0-freq;
#X obj 284 42 r \$0-sep;
#X obj 164 145 s \$0-ccomp-line;
#X obj 269 146 s \$0-scomp-line;
#X obj 187 293 s \$0-freq-line;
#X obj 43 147 s \$0-norm-f-line;
#X obj 187 187 r \$0-norm-f-line;
#X obj 335 253 t f b;
#X obj 361 274 random 200;
#X obj 361 296 + 1;
#X obj 361 318 / 200;
#X obj 340 343 *;
#X obj 50 286 s \$0-amp-line;
#X obj 44 472 timer;
#X obj 48 492 change;
#X obj 44 447 sel 0 1;
#X obj 31 514 sel 0;
#X obj 44 357 bang;
#X obj 58 537 s \$0-ioi;
#X obj 44 336 r \$0-scomp;
#X obj 44 379 f;
#X obj 44 401 + 1;
#X obj 44 423 mod 2;
#X connect 0 0 1 0;
#X connect 1 0 31 0;
#X connect 2 0 0 0;
#X connect 3 0 2 0;
#X connect 4 0 16 0;
#X connect 5 0 4 0;
#X connect 6 0 7 0;
#X connect 7 0 14 0;
#X connect 8 0 10 0;
#X connect 9 0 12 0;
#X connect 10 0 11 0;
#X connect 11 0 28 0;
#X connect 12 0 13 0;
#X connect 13 0 29 0;
#X connect 14 0 15 0;
#X connect 15 0 38 0;
#X connect 16 0 30 0;
#X connect 17 0 21 0;
#X connect 19 0 8 1;
#X connect 20 0 16 1;
#X connect 21 0 22 0;
#X connect 22 0 33 0;
#X connect 23 0 9 0;
#X connect 24 0 8 0;
#X connect 25 0 6 0;
#X connect 26 0 3 0;
#X connect 27 0 9 1;
#X connect 32 0 5 0;
#X connect 33 0 37 0;
#X connect 33 1 34 0;
#X connect 34 0 35 0;
#X connect 35 0 36 0;
#X connect 36 0 37 1;
#X connect 37 0 18 0;
#X connect 39 0 40 0;
#X connect 40 0 42 0;
#X connect 41 0 39 0;
#X connect 41 1 39 1;
#X connect 42 1 44 0;
#X connect 43 0 46 0;
#X connect 45 0 43 0;
#X connect 46 0 47 0;
#X connect 46 0 41 0;
#X connect 47 0 48 0;
#X connect 48 0 46 1;
#X restore 264 200 pd lines;
#X obj 36 257 r \$0-ioi;
#X obj 36 317 pack f 10;
#X obj 36 337 line;
#X obj 36 277 t b f;
#N canvas 0 22 349 603 sphere 0;
#X obj 56 324 * 90;
#X obj 184 349 * 90;
#X obj 39 346 rotateXYZ;
#X obj 39 452 pix_texture;
#X obj 39 223 colorRGB, f 19;
#X obj 39 295 translateXYZ 1 1 2;
#X obj 39 53 separator;
#X obj 66 157 swap 1;
#X obj 66 178 -;
#X obj 111 157 swap 1;
#X obj 111 177 -;
#X obj 164 157 swap 1;
#X obj 164 177 -;
#X obj 51 478 r sph;
#X obj 111 526 unpack;
#X obj 51 501 list split 1;
#X msg 51 527 draw \$1;
#X obj 39 389 shininess;
#X obj 39 410 specular 1 1 1;
#X obj 90 367 r shin;
#X obj 39 555 sphere 0.1 20;
#X obj 183 325 r \$0-ccomp-line;
#X obj 87 324 r \$0-scomp-line;
#X obj 144 270 r \$0-ccomp-line;
#X obj 74 251 r \$0-freq-line;
#X obj 150 199 r \$0-norm-f-line;
#X obj 164 115 r \$0-scomp-line;
#X obj 164 137 wrap;
#X obj 111 116 wrap;
#X obj 111 94 r \$0-ccomp-line;
#X obj 66 75 r \$0-amp-line;
#X obj 102 431 r \$0-txt-id;
#X obj 39 25 inlet;
#X connect 0 0 2 1;
#X connect 1 0 2 2;
#X connect 2 0 17 0;
#X connect 3 0 20 0;
#X connect 4 0 5 0;
#X connect 5 0 2 0;
#X connect 6 0 4 0;
#X connect 7 0 8 0;
#X connect 7 1 8 1;
#X connect 8 0 4 1;
#X connect 9 0 10 0;
#X connect 9 1 10 1;
#X connect 10 0 4 2;
#X connect 11 0 12 0;
#X connect 11 1 12 1;
#X connect 12 0 4 3;
#X connect 13 0 15 0;
#X connect 14 0 20 1;
#X connect 14 1 20 2;
#X connect 15 0 16 0;
#X connect 15 1 14 0;
#X connect 16 0 20 0;
#X connect 17 0 18 0;
#X connect 18 0 3 0;
#X connect 19 0 17 1;
#X connect 21 0 1 0;
#X connect 22 0 0 0;
#X connect 23 0 5 3;
#X connect 24 0 5 1;
#X connect 25 0 4 4;
#X connect 26 0 27 0;
#X connect 27 0 11 0;
#X connect 28 0 9 0;
#X connect 29 0 28 0;
#X connect 30 0 7 0;
#X connect 31 0 3 1;
#X connect 32 0 6 0;
#X restore 100 415 pd sphere;
#N canvas 0 22 272 511 cube 0;
#X obj 32 177 colorRGB, f 11;
#X obj 32 377 pix_texture;
#X obj 32 244 scale;
#X obj 39 350 r txt;
#X obj 42 447 r cbe;
#X obj 103 453 * 5;
#X obj 32 299 shininess;
#X obj 32 321 specular 1 1 1;
#X obj 82 276 r shin;
#X obj 94 127 r \$0-scomp-line;
#X obj 94 149 wrap;
#X obj 63 128 wrap;
#X obj 63 106 r \$0-ccomp-line;
#X obj 103 426 r \$0-amp-line;
#X obj 45 217 r \$0-amp-line;
#X obj 56 85 r \$0-amp-line;
#X obj 32 57 separator;
#X obj 95 397 s \$0-txt-id;
#X obj 32 30 inlet;
#X obj 32 476 sphere 1 3;
#X connect 0 0 2 0;
#X connect 1 0 19 0;
#X connect 1 1 17 0;
#X connect 2 0 6 0;
#X connect 3 0 1 0;
#X connect 4 0 19 0;
#X connect 5 0 19 1;
#X connect 6 0 7 0;
#X connect 7 0 1 0;
#X connect 8 0 6 1;
#X connect 9 0 10 0;
#X connect 10 0 0 3;
#X connect 11 0 0 2;
#X connect 12 0 11 0;
#X connect 13 0 5 0;
#X connect 14 0 2 1;
#X connect 15 0 0 1;
#X connect 16 0 0 0;
#X connect 18 0 16 0;
#X restore 19 415 pd cube;
#X obj 19 381 t a a;
#X obj 154 8 r cuber-\$2-\$1;
#X obj 290 7 inlet;
#X obj 19 77 gemhead \$1;
#X obj 91 28 loadbang;
#X obj 91 50 f \$1;
#X obj 91 72 + 1;
#X msg 91 94 set \$1;
#X msg 29 56 0;
#X connect 0 0 1 0;
#X connect 1 0 27 0;
#X connect 2 0 3 0;
#X connect 2 0 22 0;
#X connect 2 0 8 1;
#X connect 2 0 9 1;
#X connect 3 0 2 1;
#X connect 4 0 15 0;
#X connect 4 1 14 0;
#X connect 4 2 13 0;
#X connect 4 3 12 0;
#X connect 5 0 0 0;
#X connect 6 0 7 0;
#X connect 7 0 5 0;
#X connect 7 1 5 1;
#X connect 8 0 1 2;
#X connect 9 0 1 3;
#X connect 10 0 11 0;
#X connect 11 0 30 0;
#X connect 16 0 0 1;
#X connect 17 0 0 2;
#X connect 18 0 0 3;
#X connect 19 0 8 0;
#X connect 19 0 9 0;
#X connect 21 0 24 0;
#X connect 22 0 23 0;
#X connect 23 0 1 1;
#X connect 24 0 2 0;
#X connect 24 1 22 1;
#X connect 27 0 26 0;
#X connect 27 1 25 0;
#X connect 28 0 4 0;
#X connect 30 0 5 0;
#X connect 31 0 32 0;
#X connect 31 0 35 0;
#X connect 32 0 33 0;
#X connect 33 0 34 0;
#X connect 34 0 30 0;
#X connect 35 0 30 0;
