#N canvas 855 91 238 380 10;
#X obj 88 127 array define hann \$1;
#X obj 34 320 tabwrite~ hann;
#X obj 42 207 samplerate~;
#X obj 42 229 /;
#X obj 79 180 f \$1;
#X obj 42 251 osc~;
#X obj 42 273 *~ -0.5;
#X obj 42 295 +~ 0.5;
#X msg 68 228 0;
#X obj 27 33 r pd-dsp-started;
#X obj 33 60 r hann-size;
#X msg 88 106 resize \$1;
#X obj 33 105 t b f f;
#X obj 19 153 t b b b b;
#X obj 19 347 switch~ \$1;
#X obj 33 82 change;
#X obj 18 11 r fd_windows;
#X connect 2 0 3 0;
#X connect 3 0 5 0;
#X connect 4 0 3 1;
#X connect 5 0 6 0;
#X connect 6 0 7 0;
#X connect 7 0 1 0;
#X connect 8 0 5 1;
#X connect 9 0 13 0;
#X connect 10 0 15 0;
#X connect 11 0 0 0;
#X connect 12 0 13 0;
#X connect 12 1 4 1;
#X connect 12 2 11 0;
#X connect 13 0 1 0;
#X connect 13 0 14 0;
#X connect 13 1 2 0;
#X connect 13 2 8 0;
#X connect 13 3 4 0;
#X connect 15 0 12 0;
#X connect 16 0 13 0;
