#N canvas 274 22 315 297 10;
#X obj 13 133 soundfiler;
#X obj 69 205 tabwrite durations;
#X obj 174 183 f \$1;
#X obj 59 260 array define \$2-\$1;
#X obj 13 166 t f b;
#X msg 59 159 const 0 \, resize 99;
#X obj 13 8 r samples;
#X obj 13 35 route load flush;
#X obj 13 188 t b f;
#X obj 13 224 s loaded;
#X text 120 10 \$1 instance number;
#X text 121 26 \$2 sample name;
#X text 121 43 \$3 sample format .wav \, .aiff;
#X text 121 61 \$4 path to samples folder;
#N canvas 0 22 274 361 makefilename 0;
#X msg 38 289 read -resize \$1/\$2 \$3-\$4;
#X msg 112 148 set \$1;
#X obj 39 214 makefilename empty;
#X obj 112 127 makefilename %s.%%s;
#X msg 112 105 symbol \$2-\$1;
#X obj 39 83 symbol \$3;
#X obj 39 265 list append \$2 \$1;
#X obj 39 44 t b b;
#X obj 38 311 outlet;
#X obj 38 23 inlet;
#X obj 39 243 list prepend \$4;
#X obj 112 83 list append \$1 \$2;
#X connect 0 0 8 0;
#X connect 1 0 2 0;
#X connect 2 0 10 0;
#X connect 3 0 1 0;
#X connect 4 0 3 0;
#X connect 5 0 2 0;
#X connect 6 0 0 0;
#X connect 7 0 5 0;
#X connect 7 1 11 0;
#X connect 9 0 7 0;
#X connect 10 0 6 0;
#X connect 11 0 4 0;
#X restore 13 88 pd makefilename;
#X connect 0 0 4 0;
#X connect 2 0 1 1;
#X connect 4 0 8 0;
#X connect 4 1 2 0;
#X connect 5 0 3 0;
#X connect 6 0 7 0;
#X connect 7 0 14 0;
#X connect 7 1 5 0;
#X connect 8 0 9 0;
#X connect 8 1 1 0;
#X connect 14 0 0 0;
