#N canvas 1067 32 719 734 10;
#X obj 189 14 inlet;
#X obj 41 95 pack f 10;
#X obj 41 125 line~;
#X obj 143 311 phasor~;
#X obj 143 387 cos~;
#X obj 143 450 *~;
#X obj 59 659 outlet~;
#X obj 92 72 r gliss-t;
#X obj 580 190 r amp-t;
#X obj 223 318 cos~;
#X obj 189 35 list split 2;
#X obj 41 71 unpack;
#X obj 223 147 unpack;
#X obj 223 274 pack f 10;
#X obj 223 296 line~;
#X obj 143 365 -~;
#X obj 357 265 pack f 10;
#X obj 357 287 line~;
#X obj 246 452 *~;
#X obj 246 384 cos~;
#X obj 143 477 *~;
#X obj 246 478 *~;
#X obj 146 659 outlet~;
#X obj 408 240 r span-t;
#X obj 274 249 r phase-t;
#X obj 357 320 *~ 0.5;
#X obj 357 342 +~ 0.5;
#X obj 410 320 *~ -0.5;
#X obj 410 342 +~ 0.5;
#X obj 486 414 *~;
#X obj 486 182 t b b f;
#X msg 504 211 0;
#X obj 486 271 line~;
#X obj 486 361 tabread4~ hann;
#X obj 499 338 r envel;
#X obj 486 315 +~ 1;
#X obj 486 235 pack 1 40;
#X obj 138 238 *~ 2;
#X obj 41 245 +~;
#X obj 123 145 unpack;
#X obj 123 122 r vibrato;
#X obj 486 293 *~ 2045;
#X obj 598 258 pack f 10;
#X obj 598 280 line~;
#X obj 59 597 vcf~ 3;
#X obj 146 597 vcf~ 3;
#X obj 59 628 *~ 0.1;
#X obj 146 629 *~ 0.1;
#X obj 486 383 *~ 0.8;
#X obj 41 147 ftom~;
#X obj 41 189 +~;
#X obj 41 211 mtof~;
#X obj 218 565 r vcf-q;
#X obj 121 168 phasor~;
#X obj 121 190 -~;
#X obj 121 212 cos~;
#X obj 192 172 loadbang;
#X obj 192 194 random 100;
#X obj 192 216 / 100;
#X connect 0 0 10 0;
#X connect 1 0 2 0;
#X connect 2 0 49 0;
#X connect 3 0 15 0;
#X connect 3 0 19 0;
#X connect 4 0 5 0;
#X connect 5 0 20 0;
#X connect 7 0 1 1;
#X connect 8 0 36 1;
#X connect 8 0 42 1;
#X connect 9 0 15 1;
#X connect 9 0 54 1;
#X connect 10 0 11 0;
#X connect 10 1 12 0;
#X connect 11 0 1 0;
#X connect 11 1 30 0;
#X connect 12 0 13 0;
#X connect 12 1 16 0;
#X connect 13 0 14 0;
#X connect 14 0 9 0;
#X connect 15 0 4 0;
#X connect 16 0 17 0;
#X connect 17 0 25 0;
#X connect 17 0 27 0;
#X connect 18 0 21 0;
#X connect 19 0 18 0;
#X connect 20 0 44 0;
#X connect 21 0 45 0;
#X connect 23 0 16 1;
#X connect 24 0 13 1;
#X connect 25 0 26 0;
#X connect 26 0 20 1;
#X connect 27 0 28 0;
#X connect 28 0 21 1;
#X connect 29 0 5 1;
#X connect 29 0 18 1;
#X connect 30 0 36 0;
#X connect 30 1 31 0;
#X connect 30 2 42 0;
#X connect 31 0 32 0;
#X connect 32 0 41 0;
#X connect 33 0 48 0;
#X connect 34 0 33 0;
#X connect 35 0 33 0;
#X connect 36 0 32 0;
#X connect 37 0 50 1;
#X connect 38 0 3 0;
#X connect 38 0 45 1;
#X connect 38 0 44 1;
#X connect 39 0 53 0;
#X connect 39 1 37 1;
#X connect 40 0 39 0;
#X connect 41 0 35 0;
#X connect 42 0 43 0;
#X connect 43 0 29 1;
#X connect 44 0 46 0;
#X connect 45 0 47 0;
#X connect 46 0 6 0;
#X connect 47 0 22 0;
#X connect 48 0 29 0;
#X connect 49 0 50 0;
#X connect 50 0 51 0;
#X connect 51 0 38 0;
#X connect 52 0 44 2;
#X connect 52 0 45 2;
#X connect 53 0 54 0;
#X connect 54 0 55 0;
#X connect 55 0 37 0;
#X connect 56 0 57 0;
#X connect 57 0 58 0;
#X connect 58 0 53 1;
