#N canvas 488 366 524 353 10;
#X obj 30 43 t f f;
#X obj 30 271 fd_switch;
#X obj 81 250 switch~;
#X obj 127 288 *~;
#X obj 220 288 *~;
#X obj 30 197 > 0;
#X obj 30 17 r speed;
#X obj 127 317 throw~ cook-1;
#X obj 220 316 throw~ cook-2;
#X obj 142 142 t l l;
#X obj 169 177 s \$2-\$1;
#X text 175 159 to gem;
#X text 165 209 granular synthesis:;
#X text 35 140 switch in-patch dsp off if 0, f 8;
#X text 36 218 with a ramp.., f 9;
#X text 113 14 sample -->;
#X text 168 88 analyze;
#N canvas 0 22 656 434 read-table 0;
#X msg 102 246 1;
#X obj 102 276 pack f f;
#X msg 71 246 0;
#X obj 119 207 f;
#X obj 147 246 *;
#X obj 192 209 t b f;
#X obj 102 166 t b b b f;
#X obj 182 102 tabread durations;
#X obj 145 208 / 44.1;
#X obj 478 271 makefilename \$2-\$1;
#X obj 182 51 f \$1;
#X obj 182 76 t f f, f 58;
#X obj 345 362 list prepend;
#X obj 344 319 min;
#X obj 387 291 - 1024;
#X obj 345 340 max 0;
#X obj 394 176 r pic;
#X obj 432 177 r pic-\$1;
#X obj 343 143 tgl 15 0 empty empty empty 17 7 0 10 -262144 -1 -1 0
1;
#X obj 343 176 metro 1;
#X obj 389 100 loadbang;
#X obj 343 120 r auto;
#X msg 478 293 list \$1;
#X obj 389 125 int 1024;
#X msg 370 150 tempo \$1 samp;
#X obj 443 100 r bsize;
#X obj 443 125 t b f;
#X obj 345 390 list append 44100 1;
#X obj 571 294 r bsize;
#X obj 478 315 list append 1024;
#X obj 102 309 line;
#X obj 302 258 f;
#X obj 343 207 bang;
#X obj 285 219 *;
#X obj 182 125 t f f f;
#X obj 419 251 r bsize;
#X obj 102 12 inlet;
#X obj 102 34 t f b;
#X obj 345 412 outlet;
#X text 506 191 unused float is necessary for [makefilename] to work
, f 16;
#N canvas 550 124 332 327 rnddispl 0;
#X msg 73 79 bang;
#X obj 73 123 t b f b;
#X obj 110 143 random 2;
#X obj 110 165 sel 0;
#X obj 75 196 *;
#X msg 110 187 -1;
#X obj 29 30 inlet;
#X obj 29 52 t f b;
#X obj 44 222 +;
#X obj 44 244 outlet;
#X obj 185 139 i 2;
#X obj 185 161 pow;
#X msg 185 73 bang;
#X obj 185 95 random 16;
#X obj 185 117 t b f b;
#X obj 222 137 random 2;
#X obj 222 159 sel 0;
#X obj 185 183 *;
#X msg 222 181 -1;
#X obj 51 157 * 44100;
#X obj 73 101 random 15;
#X connect 0 0 20 0;
#X connect 1 1 19 0;
#X connect 1 2 2 0;
#X connect 2 0 3 0;
#X connect 3 0 5 0;
#X connect 3 1 4 1;
#X connect 4 0 8 1;
#X connect 5 0 4 1;
#X connect 6 0 7 0;
#X connect 7 0 8 0;
#X connect 7 1 20 0;
#X connect 8 0 9 0;
#X connect 10 0 11 0;
#X connect 11 0 17 0;
#X connect 12 0 13 0;
#X connect 13 0 14 0;
#X connect 14 0 10 0;
#X connect 14 1 11 1;
#X connect 14 2 15 0;
#X connect 15 0 16 0;
#X connect 16 0 18 0;
#X connect 16 1 17 1;
#X connect 18 0 17 1;
#X connect 19 0 4 0;
#X connect 20 0 1 0;
#X restore 228 352 pd rnddispl;
#X connect 0 0 1 0;
#X connect 1 0 30 0;
#X connect 2 0 30 0;
#X connect 3 0 4 0;
#X connect 4 0 1 1;
#X connect 5 0 4 0;
#X connect 5 1 4 1;
#X connect 6 0 0 0;
#X connect 6 1 3 0;
#X connect 6 2 2 0;
#X connect 6 3 5 0;
#X connect 7 0 34 0;
#X connect 8 0 3 1;
#X connect 9 0 22 0;
#X connect 10 0 11 0;
#X connect 11 0 7 0;
#X connect 11 1 9 0;
#X connect 12 0 27 0;
#X connect 13 0 15 0;
#X connect 14 0 13 1;
#X connect 15 0 12 0;
#X connect 16 0 32 0;
#X connect 17 0 32 0;
#X connect 18 0 19 0;
#X connect 19 0 32 0;
#X connect 20 0 23 0;
#X connect 21 0 18 0;
#X connect 22 0 29 0;
#X connect 23 0 24 0;
#X connect 24 0 19 0;
#X connect 25 0 26 0;
#X connect 26 0 23 0;
#X connect 26 1 23 1;
#X connect 27 0 38 0;
#X connect 28 0 29 1;
#X connect 29 0 12 1;
#X connect 30 0 33 0;
#X connect 31 0 13 0;
#X connect 32 0 31 0;
#X connect 33 0 31 1;
#X connect 34 0 8 0;
#X connect 34 1 33 1;
#X connect 34 2 14 0;
#X connect 35 0 14 1;
#X connect 36 0 37 0;
#X connect 37 0 6 0;
#X connect 37 1 10 0;
#X restore 142 60 pd read-table;
#X text 319 45 \$1 instance number;
#X text 321 65 \$2 sample name;
#X text 323 84 \$3 sample format .wav \, .aiff;
#X text 325 104 \$4 path to samples folder;
#X text 325 125 \$5 HARMONICS;
#X obj 193 14 sample-loader \$1 \$2 \$3 \$4;
#X obj 142 231 clone synthef \$5;
#X obj 142 105 sigmund~ -t -npeak \$5 peaks;
#X connect 0 0 5 0;
#X connect 0 1 17 0;
#X connect 1 0 3 0;
#X connect 1 0 4 0;
#X connect 1 1 2 0;
#X connect 3 0 7 0;
#X connect 4 0 8 0;
#X connect 5 0 1 0;
#X connect 6 0 0 0;
#X connect 9 0 24 0;
#X connect 9 1 10 0;
#X connect 17 0 25 0;
#X connect 24 0 3 1;
#X connect 24 1 4 1;
#X connect 25 0 9 0;
